<svg width="375" height="375" viewBox="0 0 375 375" fill="none" xmlns="http://www.w3.org/2000/svg">
<g opacity="0.490234">
<path fill-rule="evenodd" clip-rule="evenodd" d="M383.153 254.666C367.091 285.795 342.931 310.971 324.101 340.102C321.495 344.012 318.692 347.767 313.824 348.174C309.594 348.527 305.168 346.731 301.229 345.316C293.068 342.384 285.311 338.496 277.898 333.86C277.776 333.783 277.655 333.726 277.535 333.683C252.629 321.581 227.805 309.271 203.432 295.998C191.186 289.331 179.057 282.421 167.087 275.211C157.817 269.627 134.343 258.736 143.353 243.724C149.162 234.842 154.943 225.942 160.679 217.008C161.291 216.942 161.859 216.55 162.067 215.732C162.181 215.282 162.27 214.839 162.348 214.4C171.511 200.095 180.543 185.698 189.341 171.141C189.61 170.889 189.764 170.61 189.836 170.327C194.918 161.905 199.921 153.426 204.825 144.881C205.125 144.752 205.404 144.526 205.623 144.171C210.132 136.885 219.094 138.949 225.341 142.107C231.751 145.345 237.925 149.195 244.174 152.759C256.791 159.959 269.41 167.153 282.024 174.358C281.775 179.837 281.599 185.321 281.477 190.808C267.52 184.273 253.66 177.516 239.903 170.524C238.973 170.052 238.156 171.519 239.09 171.994C253.103 179.115 267.22 185.996 281.44 192.642C281.321 198.397 281.245 204.155 281.18 209.913C281.118 210.187 281.131 210.463 281.207 210.724C281.349 211.552 281.979 212.001 282.661 212.081C283.14 212.177 283.662 212.069 284.121 211.628C288.206 207.703 291.871 203.458 295.165 198.954C301.662 201.895 308.175 204.796 314.711 207.642C315.668 208.059 316.086 206.414 315.14 206.001C308.797 203.238 302.476 200.423 296.17 197.571C298.68 194.013 300.951 190.29 303.009 186.432C318.838 195.65 334.553 205.099 349.882 215.224C357.755 220.424 365.528 225.799 373.153 231.399C376.713 234.014 380.757 236.517 383.652 239.976C387.781 244.913 385.782 249.572 383.153 254.666ZM150.664 192.105C145.716 188.014 123.722 170.487 133.482 163.262C138.207 159.766 145.523 160.826 150.716 162.281C156.438 163.884 161.355 167.236 166.509 170.173C171.834 173.209 177.705 175.741 183.219 174.465C176.348 185.734 169.351 196.917 162.26 208.036C160.894 201.554 155.793 196.346 150.664 192.105ZM291.777 107.29C292.344 102.056 292.909 96.8209 293.475 91.586C298.165 92.2075 302.855 92.8271 307.546 93.4477C308.13 93.9262 308.938 94.0614 309.512 93.7084C312.45 94.0965 315.388 94.4855 318.328 94.8746C319.176 105.769 318.107 116.382 316.419 127.17C314.761 137.773 312.858 148.358 310.073 158.703C305.231 176.682 297.155 192.878 284.678 206.02C284.878 189.443 285.209 172.869 286.622 156.35C288.021 139.965 290.005 123.632 291.777 107.29ZM294.757 82.7473C299.056 82.3183 303.2 82.7629 307.287 84.0828C307.311 85.9756 307.244 87.8558 307.059 89.736C302.66 89.1543 298.262 88.5717 293.864 87.99C294.053 86.2421 294.243 84.4942 294.431 82.7453C294.534 82.7541 294.64 82.759 294.757 82.7473ZM369.869 224.607C363.384 219.962 356.8 215.471 350.146 211.1C335.254 201.321 320.007 192.166 304.654 183.226C308.047 176.338 310.786 169.044 312.916 161.441C315.967 150.536 317.994 139.347 319.748 128.14C321.567 116.508 322.787 105.057 321.663 93.2629C321.604 92.6589 321.323 92.2143 320.948 91.9245C320.689 91.6745 320.353 91.4946 319.937 91.4391C316.777 91.0218 313.618 90.6036 310.459 90.1853C310.708 87.7147 310.805 85.2471 310.716 82.7444C310.686 81.8933 310.194 81.2601 309.449 80.9858C309.137 80.871 308.823 80.7747 308.509 80.6687C313.085 58.1338 318.923 35.1572 317.224 11.9278C317.054 9.60313 313.602 9.58271 313.773 11.9278C315.451 34.8567 309.69 57.4899 305.175 79.7339C301.787 78.9743 298.334 78.7525 294.826 79.0949C297.248 56.6748 299.669 34.2556 302.118 11.8403C302.373 9.5117 298.92 9.53116 298.667 11.8403C295.192 43.6536 291.775 75.4727 288.326 107.29C286.554 123.632 284.568 139.965 283.171 156.35C282.773 161.004 282.465 165.662 282.217 170.323C266.909 161.583 251.595 152.851 236.283 144.115C227.039 138.841 212.564 129.997 204.032 140.397C203.597 140.468 203.182 140.726 202.887 141.242C197.607 150.478 192.203 159.628 186.712 168.722C177.189 177.096 163.263 162.858 154.043 159.523C147.014 156.98 134.755 155.036 129.379 162.268C123.791 169.785 132.763 180.257 137.662 185.336C144.768 192.703 160.677 200.602 159.057 213.045C152.875 222.69 146.641 232.299 140.375 241.883C133.456 253.409 143.253 264.385 152.134 270.216C165.235 278.819 178.947 286.531 192.585 294.133C219.983 309.403 248.018 323.34 276.156 337.008C285.585 342.906 295.895 348.022 306.559 350.854C315.923 353.342 321.725 349.977 327.081 341.944C343.098 317.164 362.889 295.362 378.384 270.189C382.062 264.212 386.178 257.865 388.652 251.203C390.545 246.102 389.534 241.434 386.092 237.398C381.663 232.202 375.296 228.493 369.869 224.607Z" fill="#204742"/>
<path fill-rule="evenodd" clip-rule="evenodd" d="M182.728 223.161C186.147 205.633 203.755 193.301 220.003 198.685C220.256 198.82 220.509 198.944 220.761 199.07C221.097 199.691 221.736 200.067 222.574 199.729C231.898 195.948 241.206 193.725 249.57 201.16C256.065 206.934 259.227 216.261 259.655 225.052C260.136 234.863 256.25 242.616 248.11 247.352C240.183 251.962 230.204 254.275 221.657 250.283C221.615 250.264 221.576 250.258 221.535 250.241C221.054 249.832 220.389 249.693 219.697 250.13C203.724 260.209 178.81 243.246 182.728 223.161ZM213.531 187.323C215.421 184.17 219.319 189.6 220.138 190.998C220.982 192.436 221.557 193.967 221.941 195.576C221.815 195.489 221.68 195.411 221.521 195.354C220.173 194.87 218.808 194.513 217.436 194.253C214.663 192.249 212.152 189.622 213.531 187.323ZM224.629 189.951C224.881 188.859 225.252 187.787 225.735 186.785C226.002 186.236 226.297 185.707 226.624 185.196C227.023 183.938 227.583 183.797 228.304 184.77C230.596 186.108 229.292 190.041 228.127 191.802C227.165 193.26 225.843 194.332 224.384 195.156C224.37 195.162 224.354 195.167 224.34 195.173C224.155 193.428 224.226 191.695 224.629 189.951ZM220.636 253.744C229.823 257.705 239.89 255.837 248.614 251.192C257.903 246.245 263.248 237.721 263.145 226.581C263.048 216.096 259.299 204.812 251.438 198.094C244.606 192.254 237.316 191.71 229.804 193.508C230.269 192.861 230.681 192.16 231 191.38C232.163 188.55 232.279 184.078 229.758 181.95C227.148 179.747 224.793 183.408 223.754 185.556C223.052 187.002 222.575 188.512 222.289 190.054C221.567 188.731 220.69 187.509 219.647 186.453C217.816 184.6 214.788 182.979 212.484 184.93C210.281 186.796 210.803 190.137 212.264 192.285C212.626 192.816 213.04 193.314 213.473 193.798C196.721 193.085 180.04 207.497 178.897 225.973C177.565 247.489 203.345 263.675 220.636 253.744Z" fill="#204742"/>
<path fill-rule="evenodd" clip-rule="evenodd" d="M208.396 249.233C205.116 249.101 202.069 247.088 199.492 245.069C194.272 240.979 189.877 234.532 190.253 227.321C190.587 220.922 194.809 215.59 199.184 211.53C204.338 206.748 210.639 205.168 217.123 207.157C217.137 211.571 217.553 219.197 214.52 221.958C212.12 224.142 209.028 225.329 206.633 227.7C206.012 228.314 206.305 229.555 207.143 229.756C209.224 230.255 211.126 231.004 212.958 232.038C211.406 233.163 209.971 234.399 208.582 235.803C208.002 236.39 208.23 237.294 208.815 237.736C210.698 239.158 212.879 238.915 214.868 239.948C216.839 240.972 216.845 243.931 217.547 246.231C214.721 247.813 211.628 249.362 208.396 249.233ZM220.167 246.805C220.17 246.604 220.129 246.392 220.012 246.175C218.723 243.752 219.674 240.686 217.596 238.699C215.898 237.075 213.493 237.187 211.418 236.39C212.777 235.146 214.205 234.043 215.762 233.044C216.522 232.556 216.495 231.414 215.762 230.92C213.887 229.655 212.032 228.722 210.011 228.035C212.989 225.978 217.078 224.26 218.422 221.065C219.085 219.489 218.885 217.71 218.947 216.039C219.069 212.769 219.383 209.515 219.438 206.242C219.447 205.716 219.196 205.369 218.858 205.192C218.778 205.139 218.691 205.091 218.59 205.055C211.609 202.582 204.357 203.869 198.617 208.824C192.94 213.724 187.574 220.678 187.958 228.859C188.315 236.451 192.717 242.84 198.327 247.194C205.611 252.847 211.854 252.248 219.598 247.858C220.039 247.609 220.196 247.205 220.167 246.805Z" fill="#204742"/>
<path fill-rule="evenodd" clip-rule="evenodd" d="M242.785 210.304C248.226 213.831 252.228 219.836 252.589 226.828C253.259 239.843 238.036 250.499 226.864 247.448C226.605 243.968 226.246 239.887 228.614 237.349C230.151 235.702 231.838 235.307 232.601 232.99C232.821 232.326 232.349 231.662 231.796 231.455C230.441 230.948 229.189 230.654 227.891 230.499C228.914 229.337 229.936 228.175 230.96 227.014C231.532 226.364 231.324 225.141 230.451 224.928C226.357 223.934 225.137 222.08 224.73 217.706C224.45 214.709 224.278 211.705 224.153 208.699C224.205 208.663 224.259 208.628 224.309 208.582C229.332 204.01 237.824 207.09 242.785 210.304ZM227.837 226.945C226.723 228.209 225.611 229.473 224.497 230.739C223.828 231.498 224.286 232.895 225.313 232.867C226.881 232.825 228.327 233.002 229.786 233.407C228.517 235.053 226.025 235.927 225.175 238.25C224.022 241.403 224.416 245.137 224.628 248.423C224.64 248.625 224.69 248.801 224.765 248.952C224.881 249.249 225.109 249.503 225.474 249.626C238.884 254.145 256.733 240.739 254.726 225.004C253.709 217.037 248.668 210.588 242.125 207.064C236.256 203.904 228.14 201.845 222.678 206.819C222.556 206.929 222.472 207.05 222.409 207.174C222.06 207.347 221.803 207.704 221.824 208.253C222.015 213.087 221.784 219.005 223.092 223.682C223.76 226.071 225.758 226.568 227.837 226.945Z" fill="#204742"/>
<path fill-rule="evenodd" clip-rule="evenodd" d="M296.922 236.778C299.665 235.712 299.123 235.663 300.858 239.288C302.715 243.169 302.549 242.702 299.728 244.797C298.85 245.449 297.908 246.02 296.993 246.612C295.111 247.827 293.207 249.002 291.291 250.157C287.218 252.611 283.09 254.963 279.002 257.39C275.161 259.672 271.348 262.014 267.655 264.557C265.735 265.879 263.903 267.389 261.918 268.604C259.004 270.388 250.924 272.739 251.702 265.49C251.722 265.312 251.705 265.154 251.665 265.018C259.147 259.705 266.639 254.405 274.35 249.465C278.471 246.823 282.655 244.283 286.922 241.909C288.928 240.793 290.952 239.706 292.998 238.674C294.286 238.025 295.584 237.297 296.922 236.778ZM249.613 263.57C248.918 264.064 248.997 264.958 249.42 265.473C249.42 265.479 249.417 265.483 249.416 265.49C248.946 269.864 252.565 273.076 256.584 273.077C262.103 273.078 267.209 267.643 271.598 264.769C277.693 260.78 284.034 257.238 290.283 253.531C295.021 250.721 302.815 247.622 305.388 242.204C306.888 239.043 306.132 235.061 302.728 233.79C298.26 232.123 292.546 236.18 288.791 238.178C275.087 245.475 262.327 254.542 249.613 263.57Z" fill="#204742"/>
<path fill-rule="evenodd" clip-rule="evenodd" d="M262.473 274.798C262.458 274.569 262.389 274.379 262.289 274.219C269.588 270.263 277.044 266.625 284.688 263.42C288.41 261.86 292.17 260.393 295.963 259.02C297.86 258.334 299.764 257.672 301.677 257.033C304.288 256.161 304.615 256.043 305.489 258.706C305.974 260.185 306.214 262.935 305.253 264.298C304.131 265.888 299.529 266.821 297.601 267.598C293.866 269.103 290.081 270.488 286.257 271.74C282.432 272.993 278.568 274.121 274.672 275.117C272.172 275.757 262.774 279.55 262.473 274.798ZM281.936 275.574C287.997 273.774 293.969 271.66 299.817 269.236C302.574 268.094 307.86 267.113 308.506 263.631C308.896 261.529 308.099 255.173 306.002 254.022C303.134 252.445 297.265 256.026 294.533 257.025C282.796 261.32 271.414 266.539 260.417 272.537C259.64 272.961 259.73 273.844 260.203 274.354C260.161 274.485 260.138 274.63 260.149 274.798C260.292 277.063 261.137 279.6 263.514 280.005C266.346 280.487 270.819 278.514 273.618 277.828C276.407 277.145 279.182 276.393 281.936 275.574Z" fill="#204742"/>
<path fill-rule="evenodd" clip-rule="evenodd" d="M290.841 294.224C284.823 295.032 278.267 294.461 273.975 289.534C283.256 287.04 292.537 284.544 301.819 282.049C303.691 289.095 296.656 293.446 290.841 294.224ZM303.694 280.221C303.445 279.583 302.937 279.162 302.258 279.344C292.321 282.016 282.384 284.687 272.448 287.357C271.708 287.556 271.505 288.279 271.675 288.891C271.365 289.343 271.277 289.996 271.691 290.544C277.058 297.655 287.354 298.396 295.065 295.885C301.27 293.865 306.493 287.385 303.694 280.221Z" fill="#204742"/>
<path fill-rule="evenodd" clip-rule="evenodd" d="M209.827 215.804C209.832 215.898 209.851 215.989 209.887 216.076C209.455 216.264 208.762 216.264 208.479 216.221C208.066 216.159 207.705 215.998 207.4 215.767C208.168 215.434 209.048 215.455 209.827 215.804ZM209.972 217.696C210.697 217.501 211.596 217.042 211.847 216.329C212.023 215.826 211.784 215.331 211.373 215.076C211.329 214.897 211.219 214.726 211.009 214.601C209.268 213.568 207.072 213.789 205.539 215.043C205.259 215.272 205.226 215.712 205.406 216.001C206.308 217.446 208.24 218.16 209.972 217.696Z" fill="#204742"/>
<path fill-rule="evenodd" clip-rule="evenodd" d="M203.984 222.945C204.082 222.943 204.164 222.908 204.242 222.867C204.639 222.942 205.036 223.016 205.434 223.092C205.292 223.898 204.325 224.307 203.788 224.388C203.215 224.475 202.655 224.37 202.121 224.133C202.578 223.402 203.211 222.968 203.984 222.945ZM200.682 225.442C202.305 226.595 204.585 226.916 206.069 225.185C206.655 224.505 207.065 223.515 206.916 222.447C206.706 220.938 205.508 221.129 204.599 220.958C204.455 220.931 204.33 220.967 204.215 221.029C204.143 220.999 204.072 220.969 203.984 220.971C202.44 221.017 201.063 222.165 200.421 224.092C200.264 224.56 200.305 225.175 200.682 225.442Z" fill="#204742"/>
<path fill-rule="evenodd" clip-rule="evenodd" d="M204.682 235.319C204.331 235.617 203.975 235.897 203.578 236.093C203.123 236.317 202.667 236.403 202.259 236.251C203.064 235.533 203.937 234.949 204.884 234.513C204.943 234.485 204.983 234.44 205.031 234.402C205.205 234.481 205.408 234.478 205.619 234.337C205.296 234.554 205.001 235.049 204.682 235.319ZM204.914 232.82C204.792 232.776 204.657 232.764 204.497 232.837C203.028 233.514 201.729 234.442 200.543 235.68C200.227 236.01 200.307 236.568 200.543 236.91C202.039 239.09 204.479 237.775 205.965 236.326C206.652 235.657 207.23 234.653 206.797 233.58C206.442 232.705 205.62 232.367 204.914 232.82Z" fill="#204742"/>
<path fill-rule="evenodd" clip-rule="evenodd" d="M209.47 242.915C208.939 243.533 208.183 243.967 207.385 244.076C206.846 244.148 206.974 244.078 207.246 243.646C207.465 243.301 207.65 242.953 207.904 242.634C208.457 241.936 209.127 241.402 209.891 240.966C209.985 240.912 210.048 240.844 210.109 240.775C210.512 241.22 209.755 242.584 209.47 242.915ZM209.715 238.844C209.269 238.853 209.009 239.147 208.92 239.492C207.439 240.36 205.942 241.795 205.413 243.502C204.832 245.384 206.49 246.109 208.025 245.762C209.639 245.397 211.053 244.167 211.664 242.598C212.294 240.983 211.707 238.804 209.715 238.844Z" fill="#204742"/>
<path fill-rule="evenodd" clip-rule="evenodd" d="M235.725 212.228C235.877 212.137 236.912 211.62 236.69 212.163C236.464 212.717 235.385 213.153 234.962 213.314C234.741 213.399 234.52 213.456 234.298 213.499C234.442 213.333 234.574 213.155 234.733 213.004C235.041 212.71 235.372 212.438 235.725 212.228ZM232.753 215.445C232.774 215.45 232.791 215.465 232.813 215.468C234.149 215.616 235.486 215.289 236.664 214.496C237.673 213.819 238.815 212.759 238.159 211.21C237.539 209.751 236.127 209.877 235.081 210.488C233.744 211.268 232.671 212.57 231.87 214.073C231.444 214.872 232.153 215.616 232.753 215.445Z" fill="#204742"/>
<path fill-rule="evenodd" clip-rule="evenodd" d="M239.897 220.25C239.942 220.576 237.386 221.126 235.978 220.87C237.571 220.498 239.862 220.003 239.897 220.25ZM233.482 220.225C233.391 220.377 233.359 220.563 233.441 220.783C233.899 222.002 235.14 222.448 236.485 222.5C237.425 222.536 238.439 222.384 239.333 222.13C239.949 221.955 241.015 221.698 241.401 221.209C242.153 220.261 241.118 218.997 240.077 218.712C239.171 218.466 238.202 218.74 237.324 218.944C236.234 219.199 235.143 219.458 234.053 219.714C233.72 219.793 233.548 219.996 233.482 220.225Z" fill="#204742"/>
<path fill-rule="evenodd" clip-rule="evenodd" d="M243.653 230.426C242.502 231.292 240.806 230.321 239.756 229.246C240.523 229.071 241.287 229.009 242.075 229.116C242.61 229.189 244.744 229.605 243.653 230.426ZM238.859 227.54C238.586 227.62 238.423 227.81 238.341 228.039C237.774 228.087 237.26 228.717 237.679 229.382C239.177 231.757 243.537 234.354 245.469 231.068C246.223 229.783 245.558 228.451 244.444 227.882C242.703 226.991 240.675 227.015 238.859 227.54Z" fill="#204742"/>
<path fill-rule="evenodd" clip-rule="evenodd" d="M236.355 237.462C235.762 237.091 235.295 236.531 235.003 235.857C235.505 235.88 235.998 235.965 236.485 236.149C236.876 236.298 238.541 237.086 238.466 237.725C238.388 238.395 236.527 237.569 236.355 237.462ZM238.593 235.496C237.323 234.495 235.761 234.062 234.211 234.201C233.61 234.255 233.38 234.924 233.528 235.4C233.4 235.574 233.343 235.805 233.448 236.093C233.952 237.484 234.837 238.576 236.098 239.175C237.15 239.674 238.931 239.994 239.715 238.794C240.519 237.562 239.492 236.206 238.593 235.496Z" fill="#204742"/>
<path fill-rule="evenodd" clip-rule="evenodd" d="M256.915 267.502C268.229 260.3 279.545 253.097 290.859 245.895C291.752 245.327 290.937 243.848 290.039 244.419C278.724 251.621 267.41 258.824 256.094 266.027C255.201 266.595 256.017 268.073 256.915 267.502Z" fill="#204742"/>
<path fill-rule="evenodd" clip-rule="evenodd" d="M295.758 242.644C296.925 242.036 298.05 241.343 299.139 240.563C300 239.945 299.208 238.364 298.342 238.986C297.254 239.766 296.129 240.459 294.962 241.067C294.037 241.549 294.838 243.124 295.758 242.644Z" fill="#204742"/>
<path fill-rule="evenodd" clip-rule="evenodd" d="M326.354 217.21L337.957 224.709C338.87 225.3 339.696 223.723 338.783 223.134C334.917 220.633 331.049 218.134 327.182 215.633C326.267 215.042 325.441 216.62 326.354 217.21Z" fill="#204742"/>
<path fill-rule="evenodd" clip-rule="evenodd" d="M337.684 245.743C331.644 243.467 318.839 238.978 313.339 244.874C307.939 250.663 319.313 255.983 322.709 258.083C331.301 263.402 340.339 267.771 350.393 268.407C351.419 268.471 351.416 266.775 350.393 266.711C342.764 266.229 335.712 263.544 328.964 259.827C326.198 258.303 323.504 256.636 320.837 254.927C319.515 254.079 318.162 253.254 316.877 252.342C313.683 250.07 313.465 245.695 317.487 244.524C324.541 242.471 333.039 245.608 339.603 248.298C346.146 250.978 353.132 254.052 356.704 260.88C357.202 261.834 358.581 260.98 358.082 260.024C353.93 252.088 345.344 248.628 337.684 245.743Z" fill="#204742"/>
<path fill-rule="evenodd" clip-rule="evenodd" d="M335.66 254.986C336.599 254.917 337.554 254.935 338.491 255.03C340.872 255.271 343.142 256.091 345.31 257.301C346.305 257.858 347.177 256.05 346.174 255.49C343.149 253.8 339.945 252.808 336.604 252.85C334.876 252.871 331.678 252.76 331.018 255.373C330.44 257.663 332.443 259.533 333.876 260.405C337.264 262.463 341.172 263.616 344.862 264.497C345.941 264.752 346.403 262.731 345.319 262.473C343.302 261.993 341.309 261.411 339.346 260.662C338.531 260.351 337.721 260.008 336.919 259.647C335.389 258.954 334.24 258.804 333.733 256.76C333.168 254.483 334.227 255.089 335.66 254.986Z" fill="#204742"/>
<path fill-rule="evenodd" clip-rule="evenodd" d="M346.107 282.502C342.01 281.164 338.151 279.359 334.488 277.082C333.679 276.58 332.936 277.86 333.743 278.361C337.51 280.702 341.503 282.555 345.715 283.93C346.619 284.225 347.007 282.797 346.107 282.502Z" fill="#204742"/>
<path fill-rule="evenodd" clip-rule="evenodd" d="M262.605 300.977C239.565 291.728 216.734 281.935 194.128 271.6C193.191 271.171 192.371 272.606 193.317 273.038C216.051 283.431 239.008 293.282 262.178 302.583C263.144 302.971 263.562 301.361 262.605 300.977Z" fill="#204742"/>
<path fill-rule="evenodd" clip-rule="evenodd" d="M234.871 281.107C234.036 280.27 232.838 281.742 233.682 282.587C237.354 286.262 241.236 289.536 245.354 292.387C246.302 293.043 247.15 291.234 246.203 290.578C242.213 287.815 238.431 284.669 234.871 281.107Z" fill="#204742"/>
<path fill-rule="evenodd" clip-rule="evenodd" d="M171.811 256.391C167.628 253.999 163.822 250.847 160.424 246.905C159.648 246.005 158.492 247.476 159.271 248.381C162.769 252.438 166.676 255.728 170.988 258.194C171.938 258.737 172.768 256.939 171.811 256.391Z" fill="#204742"/>
<path fill-rule="evenodd" clip-rule="evenodd" d="M167.872 244.544C167.087 243.726 165.925 245.074 166.713 245.896C168.356 247.611 169.998 249.325 171.641 251.038C172.425 251.856 173.587 250.508 172.8 249.686C171.157 247.972 169.514 246.257 167.872 244.544Z" fill="#204742"/>
<path fill-rule="evenodd" clip-rule="evenodd" d="M273.434 215.464C280.373 219.591 287.313 223.718 294.253 227.844C295.099 228.348 295.854 226.939 295.007 226.435C288.068 222.308 281.128 218.181 274.189 214.053C273.344 213.55 272.587 214.96 273.434 215.464Z" fill="#204742"/>
<path fill-rule="evenodd" clip-rule="evenodd" d="M310.54 327.749C306.333 325.632 302.558 322.529 299.242 318.493C298.484 317.569 297.348 319.069 298.11 319.997C301.633 324.284 305.645 327.551 310.113 329.8C311.079 330.286 311.496 328.231 310.54 327.749Z" fill="#204742"/>
<path fill-rule="evenodd" clip-rule="evenodd" d="M288.838 174.429C292.625 150.908 295.361 127.252 297.028 103.505C297.106 102.413 295.329 102.417 295.252 103.505C293.596 127.101 290.889 150.605 287.125 173.977C286.953 175.048 288.665 175.509 288.838 174.429Z" fill="#204742"/>
<path fill-rule="evenodd" clip-rule="evenodd" d="M287.648 188.813C287.703 185.68 287.798 182.574 287.935 179.482C287.994 178.153 287.479 177.582 287.42 178.92C287.274 182.199 287.171 185.492 287.114 188.813C287.091 190.169 287.625 190.163 287.648 188.813Z" fill="#204742"/>
<path fill-rule="evenodd" clip-rule="evenodd" d="M284.41 193.9C284.481 193.149 284.552 192.398 284.623 191.647C284.722 190.602 284.131 190.155 284.032 191.201C283.961 191.952 283.89 192.703 283.819 193.453C283.719 194.499 284.311 194.946 284.41 193.9Z" fill="#204742"/>
<mask id="mask0" mask-type="alpha" maskUnits="userSpaceOnUse" x="344" y="0" width="71" height="130">
<path fill-rule="evenodd" clip-rule="evenodd" d="M344.58 0H414.228V129.128H344.58V0Z" fill="white"/>
</mask>
<g mask="url(#mask0)">
<path fill-rule="evenodd" clip-rule="evenodd" d="M345.874 95.1988C343.124 105.947 344.065 123.206 355.553 127.899C366.995 132.573 378.839 123.123 384.114 112.877C386.976 107.316 388.837 100.758 388.609 94.3841C388.343 86.9832 385.346 80.1454 382.833 73.3563C393.829 54.8849 404.471 36.1471 414.015 16.7828C415.043 14.6977 412.065 12.8468 411.035 14.9358C401.424 34.4386 390.699 53.3032 379.621 71.9034C379.263 72.2235 379.055 72.6957 379.158 73.2831C379.176 73.5368 379.254 73.7729 379.376 73.9846C383.326 84.7966 387.176 94.549 383.212 106.156C379.835 116.05 370.312 127.413 359.262 125.224C347.18 122.831 346.658 105.297 349.423 95.3813C352.487 84.3976 360.705 76.061 370.888 72.5581C371.171 72.4596 371.396 72.3093 371.575 72.1269C372.053 72.0986 372.506 71.8215 372.776 71.1843C382.602 48.0109 393.148 25.1936 404.4 2.76071C405.442 0.682422 402.464 -1.1695 401.419 0.912692C390.214 23.2538 379.711 45.9745 369.919 69.0485C358.354 73.046 349.092 82.6208 345.874 95.1988Z" fill="#204742"/>
</g>
<path fill-rule="evenodd" clip-rule="evenodd" d="M369.603 79.3749C355.791 82.9884 347.007 101.638 356.153 114.015C356.762 114.839 358.134 114.026 357.516 113.19C348.99 101.652 357.124 84.3248 370.024 80.9493C371.009 80.6917 370.592 79.1164 369.603 79.3749Z" fill="#204742"/>
<path fill-rule="evenodd" clip-rule="evenodd" d="M364.494 117.502C363.062 117.757 361.503 117.809 359.945 117.664C359.012 117.576 358.615 118.064 359.546 118.151C361.492 118.333 363.471 118.256 365.252 117.939C366.106 117.786 365.349 117.35 364.494 117.502Z" fill="#204742"/>
<path fill-rule="evenodd" clip-rule="evenodd" d="M372.843 115.778C374.469 114.836 375.642 113.39 376.305 111.63C376.742 110.47 374.893 109.968 374.46 111.119C373.975 112.402 373.051 113.433 371.876 114.113C370.81 114.732 371.772 116.397 372.843 115.778Z" fill="#204742"/>
<path fill-rule="evenodd" clip-rule="evenodd" d="M200.29 60.0702C202.83 65.5883 207.035 69.7873 211.708 73.964C212.182 74.3891 212.666 74.8007 213.147 75.2161C210.618 81.1884 207.705 86.9395 204.415 92.4857C198.516 90.46 192.481 89.4476 186.516 90.8143C192.884 81.5835 197.164 70.9618 200.29 60.0702ZM217.382 78.7201C213.885 83.4869 211.127 88.6769 209.125 94.3057C208.303 93.9572 207.477 93.6214 206.649 93.302C209.777 87.9887 212.561 82.4872 214.993 76.7827C215.783 77.4389 216.578 78.0853 217.382 78.7201ZM278.509 115.643C281.42 117.115 282.072 121.299 279.87 123.8C277.981 125.947 274.926 125.715 272.389 125.309C256.196 117.059 239.911 109.011 223.526 101.188C219.608 99.3171 215.49 97.1516 211.254 95.2385C213.17 89.7854 215.823 84.7546 219.223 80.1576C223.397 83.3442 227.74 86.2863 232.173 89.0555C247.308 98.5115 263.416 106.108 278.509 115.643ZM182.883 95.6383C183.15 95.6529 183.431 95.6112 183.72 95.4811C191.208 92.0965 199.162 94.2659 206.428 97.2137C213.881 100.237 221.112 103.996 228.37 107.493C242.514 114.309 256.585 121.292 270.587 128.426C270.786 128.611 271.046 128.752 271.393 128.807C275.853 129.529 280.802 129.428 283.425 124.877C285.841 120.679 284.561 114.675 280.259 112.501C266.451 103.776 251.805 96.6692 237.814 88.2906C230.602 83.9713 223.535 79.3073 217.03 73.8737C210.548 68.4614 203.971 62.756 201.905 54.0368C205.385 40.0809 207.139 25.7844 205.185 11.4189C204.87 9.10976 201.529 10.092 201.841 12.3866C203.597 25.302 202.073 38.2775 199.098 50.8676C196.473 61.9737 192.924 72.972 187.353 82.8579C177.063 101.117 159.621 113.404 140.47 119.387C129.387 122.85 117.828 124.293 106.285 124.383C95.1976 124.468 83.5988 123.861 72.8488 120.833C52.8823 115.21 41.6607 96.7915 34.5 77.6281C27.4114 58.6531 24.7387 33.9125 32.0705 14.6152C32.8964 12.439 29.544 11.4936 28.7255 13.6475C21.71 32.112 23.8472 55.0637 29.4848 73.6243C35.1834 92.3848 46.0674 113.129 63.9541 121.424C74.1852 126.17 85.7933 127.235 96.8438 127.81C108.97 128.441 121.208 127.753 133.103 125.106C152.008 120.899 170.224 111.144 182.883 95.6383Z" fill="#204742"/>
<path fill-rule="evenodd" clip-rule="evenodd" d="M104.927 44.6557C105.049 44.6567 105.158 44.6368 105.26 44.6092C115.325 42.7566 123.817 50.3588 124.436 60.5502C125.1 71.4961 117.619 79.7332 106.925 80.0873C97.9027 80.3853 89.5889 73.8764 88.0149 64.6474C86.1879 53.936 94.5601 44.5409 104.927 44.6557ZM108.345 82.368C120.451 81.2224 127.984 71.2607 126.622 59.062C125.376 47.9017 115.693 40.4257 104.881 42.284C93.6656 42.1862 84.4294 51.9438 85.5492 63.6158C86.6616 75.2023 97.2381 83.4195 108.345 82.368Z" fill="#204742"/>
<path fill-rule="evenodd" clip-rule="evenodd" d="M61.216 55.3509C62.7002 50.7176 67.5871 47.0538 70.4385 43.2947C75.6748 36.3924 77.7195 28.0172 87.7662 28.3985C93.4358 28.614 98.614 30.4616 104.151 31.3692C109.143 32.1871 113.593 30.8667 118.167 28.8533C125.29 25.7177 135.152 20.2807 138.534 31.0746C139.288 34.4819 139.086 37.6737 138.157 41.0095C137.571 43.1145 136.338 45.1042 135.926 47.2435C135.278 50.6022 136.434 52.978 138.365 55.6426C144.189 63.6785 150.079 74.1663 144.013 83.9363C138.182 93.3279 127.143 88.2922 118.497 88.7012C109.449 89.1302 106.044 97.5818 98.1042 100.347C89.7547 103.256 75.2175 101.14 73.0797 90.7176C72.3376 87.1005 72.5773 83.3329 71.8315 79.7101C70.9695 75.5287 68.7091 72.579 66.0577 69.4186C62.9326 65.6919 59.5419 60.58 61.216 55.3509ZM66.6984 75.8547C68.5136 78.8759 68.7791 82.2737 69.0714 85.7191C69.4355 90.0235 69.7241 94.571 72.5192 98.0346C75.3936 101.597 80.2132 103.384 84.4769 104.322C94.0064 106.419 101.849 103.741 108.89 97.0831C114.01 92.242 118.883 91.9627 125.443 92.7215C130.315 93.284 135.391 94.0419 140.052 91.9808C149.147 87.9576 151.6 76.3314 148.865 67.3308C147.99 64.4507 146.667 61.7145 145.114 59.1662C143.23 56.0792 138.696 52.0789 139.259 48.194C139.683 45.2701 141.537 42.4433 142.087 39.4593C142.643 36.441 142.562 33.5228 141.952 30.5445C141.94 30.411 141.914 30.2709 141.868 30.1241C141.833 29.9658 141.781 29.8276 141.719 29.6998C139.35 22.6669 134.235 19.722 127.106 21.5C123.037 22.5144 119.34 24.606 115.469 26.1733C112.425 27.406 109.382 28.3194 106.062 28.0486C102.118 27.7273 98.2941 26.1581 94.3881 25.5117C85.0485 23.9682 78.1445 24.8043 72.6621 33.2168C69.8208 37.5746 67.3106 41.6425 63.9273 45.6238C60.9385 49.1407 57.5626 52.5108 57.3681 57.4969C57.2021 61.767 58.9924 65.8979 61.429 69.246C63.0847 71.5198 65.2419 73.4294 66.6984 75.8547Z" fill="#204742"/>
<path fill-rule="evenodd" clip-rule="evenodd" d="M163.551 53.4472C164.662 53.5677 165.968 53.6962 166.787 54.7246C167.973 56.2152 166.799 58.1224 165.457 58.5969C162.73 59.5639 161.066 54.9356 163.551 53.4472ZM165.524 60.5856C167.435 60.1401 169.321 57.8499 168.859 55.3442C168.364 52.6543 166.127 51.875 164.131 51.5724C163.959 51.368 163.717 51.2619 163.409 51.3982C163.333 51.4317 163.263 51.483 163.189 51.521C163.123 51.5433 163.069 51.5779 163.017 51.6181C161.338 52.5929 160.28 54.767 160.797 57.0582C161.353 59.5349 163.46 61.0657 165.524 60.5856Z" fill="#204742"/>
<path fill-rule="evenodd" clip-rule="evenodd" d="M151.593 51.7253C150.73 52.3381 149.712 51.9615 149.268 51.039C148.775 50.011 149.336 48.9708 150.127 48.2902C151.915 48.2723 153.35 50.4742 151.593 51.7253ZM152.4 53.1722C153.836 52.2524 154.491 50.3998 153.739 48.8362C152.948 47.1907 151.129 46.4564 149.387 46.7219C149.023 46.7765 148.848 47.0081 148.807 47.2745C147.513 48.4964 146.971 50.4365 147.926 52.0435C148.856 53.6108 150.846 54.1691 152.4 53.1722Z" fill="#204742"/>
<path fill-rule="evenodd" clip-rule="evenodd" d="M162.206 71.6712C162.231 71.6561 162.241 71.6361 162.264 71.619C163.072 71.9822 163.752 72.6394 163.813 73.5504C163.865 74.351 163.278 75.0614 162.47 75.2289C161.591 75.4105 160.904 74.7163 160.816 73.8935C160.712 72.9314 161.419 72.1407 162.206 71.6712ZM162.462 76.9988C163.983 76.8584 165.322 75.6945 165.576 74.2236C165.873 72.4949 164.75 70.7963 163.155 70.094C162.805 69.9385 162.477 70.0157 162.226 70.1873C161.975 70.0077 161.643 69.9475 161.295 70.1552C159.829 71.0281 158.762 72.5632 159.063 74.2909C159.344 75.8942 160.746 77.1573 162.462 76.9988Z" fill="#204742"/>
<path fill-rule="evenodd" clip-rule="evenodd" d="M124.714 108.504C125.577 109.596 124.529 110.859 123.253 111.212C120.424 111.995 118.945 108.259 122.024 107.617C122.213 107.578 122.339 107.495 122.438 107.397C123.322 107.566 124.198 107.85 124.714 108.504ZM120.935 106.37C119.165 107.006 118.105 108.606 118.666 110.286C119.226 111.962 121.12 113.031 123.122 112.76C125.126 112.489 126.901 110.954 126.774 109.138C126.623 107.001 124.057 106.109 121.962 105.811C121.44 105.737 121.069 106.03 120.935 106.37Z" fill="#204742"/>
<path fill-rule="evenodd" clip-rule="evenodd" d="M46.3684 54.4156C46.7804 54.6656 47.1623 54.4305 47.3639 54.0619C49.0438 54.7051 48.7223 59.6983 46.6417 59.5818C45.6608 59.5252 44.9885 58.5967 44.8446 57.4298C44.742 56.6017 45.1669 53.6836 46.3684 54.4156ZM46.1461 61.3855C50.6004 62.3429 51.3468 52.582 47.114 52.1193C46.7942 52.0841 46.5908 52.2743 46.4831 52.5371C44.867 52.177 43.5698 54.2115 43.3483 56.169C43.0794 58.5454 44.1577 60.9581 46.1461 61.3855Z" fill="#204742"/>
<path fill-rule="evenodd" clip-rule="evenodd" d="M53.614 78.9973C53.3483 79.5279 52.8392 80.2554 52.33 80.3528C51.442 80.5213 50.8054 79.5136 50.6466 78.5119C50.5067 77.6277 50.7278 76.671 51.0078 75.8829C51.1789 75.4034 51.7924 74.5714 51.4759 74.0076C51.9297 74.8147 52.8204 74.4005 52.9515 73.6824C54.1284 74.9061 54.5778 77.0758 53.614 78.9973ZM49.3199 75.9209C48.6663 78.4549 49.4117 82.0311 51.705 82.4263C53.9323 82.8097 55.6139 79.6976 55.7004 77.0117C55.7976 73.9744 54.1507 71.4428 51.9654 70.8149C51.1896 70.593 50.7786 71.7953 51.1254 72.4469C50.2882 73.1567 49.5713 74.9441 49.3199 75.9209Z" fill="#204742"/>
<path fill-rule="evenodd" clip-rule="evenodd" d="M55.9544 101.667C56.7121 102.427 57.8682 101.225 57.1096 100.464C46.1456 89.4682 37.8746 74.9044 35.3253 59.1344C32.9571 44.487 34.3708 28.4009 38.5884 14.2593C38.901 13.2107 37.325 12.7633 37.0133 13.807C32.707 28.2482 31.3298 44.6485 33.7503 59.5877C36.3471 75.6232 44.8066 90.4856 55.9544 101.667Z" fill="#204742"/>
<path fill-rule="evenodd" clip-rule="evenodd" d="M64.5732 105.998C63.7618 105.326 62.6029 106.52 63.4235 107.198C73.2748 115.354 85.5433 117.745 97.6593 119.791C98.6835 119.965 99.124 118.328 98.0915 118.153C86.3211 116.167 74.166 113.939 64.5732 105.998Z" fill="#204742"/>
<path fill-rule="evenodd" clip-rule="evenodd" d="M110.896 119.813C108.83 119.988 106.745 120.017 104.652 119.891C103.637 119.829 103.199 120.427 104.223 120.489C106.614 120.634 108.961 120.611 111.326 120.411C112.338 120.325 111.91 119.727 110.896 119.813Z" fill="#204742"/>
<path fill-rule="evenodd" clip-rule="evenodd" d="M137.638 114.29C159.65 104.488 183.391 89.6996 187.924 62.5043C188.101 61.448 186.578 60.9942 186.402 62.0591C181.968 88.6548 158.75 103.082 137.219 112.671C136.296 113.081 136.701 114.707 137.638 114.29Z" fill="#204742"/>
<path fill-rule="evenodd" clip-rule="evenodd" d="M189.354 47.6333C190.964 36.4921 191.553 25.278 191.092 14.0013C191.049 12.9539 189.591 12.9474 189.635 14.0013C190.09 25.1313 189.538 36.1987 187.949 47.1988C187.8 48.2285 189.204 48.6704 189.354 47.6333Z" fill="#204742"/>
<path fill-rule="evenodd" clip-rule="evenodd" d="M98.9448 53.9135C98.9587 53.8981 98.966 53.8837 98.978 53.8683C106.11 52.4008 109.905 68.1804 104.629 71.9833C98.8747 76.1312 96.313 68.116 96.194 63.8412C96.0943 60.3016 96.5344 56.591 98.9448 53.9135ZM94.6866 69.3894C96.2724 74.0697 101.098 77.2528 105.511 74.3379C113.703 68.9261 108.012 48.4902 97.8673 51.6713C97.4301 51.8078 97.1875 52.123 97.0989 52.4795C93.5003 56.7428 92.9182 64.1679 94.6866 69.3894Z" fill="#204742"/>
<path fill-rule="evenodd" clip-rule="evenodd" d="M115.977 60.3006C116.506 61.035 116.696 62.3071 116.098 63.0622C115.504 63.8122 114.679 63.6516 114.248 62.7753C113.76 61.7798 113.932 60.484 114.1 59.3777C114.797 59.3932 115.486 59.618 115.977 60.3006ZM117.349 65.1246C118.667 63.7469 118.825 61.3437 118.04 59.5103C117.194 57.5318 115.359 56.6337 113.637 56.8036C113.218 56.8461 112.932 57.1371 112.78 57.5111C112.481 57.6074 112.23 57.8912 112.151 58.406C111.812 60.629 111.619 63.1461 112.972 64.934C114.155 66.495 116.064 66.4691 117.349 65.1246Z" fill="#204742"/>
<path fill-rule="evenodd" clip-rule="evenodd" d="M74.3398 305.312C71.814 298.839 70.1608 292.02 69.1197 285.119C67.1006 271.732 67.3581 258.109 67.8443 244.595C76.6201 260.621 84.6235 277.663 86.9936 296.104C85.257 304.022 83.3101 311.888 81.1576 319.694C79.1329 314.796 76.283 310.292 74.3398 305.312ZM85.47 222.63C77.3796 224.021 69.4124 226.168 61.9129 229.686C54.4477 233.188 48.0781 238.327 41.9096 243.876C35.7781 249.39 30.257 254.803 26.6133 262.485C16.9918 282.765 8.92273 304.021 0.197858 324.752C-0.00776005 324.906 -0.191149 325.128 -0.321744 325.45C-5.81137 338.803 -8.67984 352.899 -8.75949 367.444C-8.77153 369.786 -5.29825 369.789 -5.28621 367.444C-5.21304 354.007 -2.71228 340.866 2.20587 328.471C2.39482 328.319 2.56154 328.106 2.68658 327.811C9.74242 311.115 16.7973 294.421 23.8523 277.726C27.1357 269.958 29.9402 261.393 35.4882 255.022C40.6453 249.097 47.0148 243.583 53.276 238.999C59.7437 234.261 66.9709 231.003 74.5602 228.803C78.1891 227.752 81.8838 226.936 85.5941 226.276C87.7689 225.89 95.4546 223.584 96.6753 225.512C97.2366 226.398 96.3493 230.738 96.265 231.93C96.1131 234.068 95.9464 236.204 95.7648 238.34C95.3749 242.916 94.9136 247.485 94.3848 252.045C93.3447 261.005 92.0248 269.929 90.4447 278.801C89.7871 282.495 89.0665 286.178 88.3163 289.851C84.8356 271.973 76.5905 255.421 67.8434 239.751C67.2488 238.685 65.7307 239.182 65.6863 240.363C65.1324 254.936 64.6526 269.615 66.6467 284.098C67.6387 291.296 69.2549 298.404 71.8122 305.175C74.1898 311.473 78.0882 317.103 80.0897 323.527C78.9579 327.497 77.7751 331.453 76.5405 335.391C76.4617 335.534 76.3923 335.687 76.346 335.869C73.0116 348.941 67.6739 361.148 60.4245 372.342C59.1658 374.284 62.1741 376.108 63.4235 374.179C70.6693 362.991 76.0329 350.741 79.4525 337.715C79.4765 337.655 79.5062 337.604 79.5266 337.541C85.4145 318.929 90.165 299.942 93.6327 280.671C95.2869 271.482 96.6558 262.238 97.7515 252.958C98.3249 248.095 98.8213 243.221 99.2381 238.34C99.604 234.041 100.831 228.591 100.111 224.328C99.1029 218.359 89.2406 221.982 85.47 222.63Z" fill="#204742"/>
<path fill-rule="evenodd" clip-rule="evenodd" d="M49.3448 368.467C44.25 361.856 39.1526 355.249 34.0622 348.633C28.9683 342.017 24.0566 335.495 23.2574 326.55C23.253 326.502 23.2414 326.459 23.2333 326.414C23.2307 326.352 23.2289 326.291 23.2173 326.226C22.0467 319.404 21.2752 312.548 20.8609 305.628C23.4967 307.883 26.4317 317.011 27.6326 319.13C29.9898 323.293 32.5577 327.322 35.0355 331.401C35.0783 331.472 35.1266 331.532 35.1766 331.589C35.1891 331.609 35.1962 331.628 35.2096 331.648C42.5741 342.07 50.0083 354.835 49.3448 368.467ZM36.9632 330.168C33.1586 323.907 28.4362 317.572 26.1245 310.435C24.9548 306.82 24.0432 302.167 19.6314 302.682C19.0573 302.749 18.4787 303.188 18.5153 303.903C18.9073 311.601 19.7546 319.218 21.052 326.795C21.8002 334.51 25.1503 340.608 29.5683 346.549C36.0426 355.255 42.7875 363.733 49.4002 372.314C49.9038 372.968 51.152 372.666 51.2654 371.775C53.2441 356.215 45.3188 342.036 36.9659 330.174L36.9632 330.168Z" fill="#204742"/>
<path fill-rule="evenodd" clip-rule="evenodd" d="M35.3063 277.005C34.1488 292.819 36.8137 308.445 43.178 323.088C43.6101 324.083 45.3285 323.646 44.8893 322.636C38.5858 308.133 35.9352 292.675 37.0815 277.005C37.1616 275.915 35.3854 275.92 35.3063 277.005Z" fill="#204742"/>
<path fill-rule="evenodd" clip-rule="evenodd" d="M32.5635 294.17C32.5581 300.502 33.7453 306.546 36.081 312.295C36.5058 313.339 37.864 312.431 37.4419 311.392C35.2214 305.928 34.1332 300.185 34.1386 294.17C34.1386 293.019 32.5635 293.017 32.5635 294.17Z" fill="#204742"/>
<path fill-rule="evenodd" clip-rule="evenodd" d="M71.316 309.161C65.7979 297.232 62.9783 284.245 62.9631 270.773C62.9615 269.697 61.4881 269.695 61.4897 270.773C61.5057 284.527 64.4104 297.825 70.043 310.004C70.4842 310.958 71.7563 310.113 71.316 309.161Z" fill="#204742"/>
<path fill-rule="evenodd" clip-rule="evenodd" d="M396.3 152.626C380.055 162.868 369.547 131.489 386.391 125.557C401.76 121.253 409.582 144.254 396.3 152.626ZM371.072 151.624C370.665 150.662 370.2 149.752 369.667 148.907C371.631 147.911 373.594 146.914 375.557 145.92C375.859 146.922 376.224 147.898 376.65 148.833C374.733 149.625 372.872 150.554 371.072 151.624ZM362.202 172.417C345.957 182.659 335.448 151.281 352.292 145.349C367.662 141.045 375.482 164.046 362.202 172.417ZM336.441 168.494C337.876 167.106 339.864 165.208 341.056 164.206C341.295 165.24 341.603 166.252 341.974 167.231C340.164 167.863 338.327 168.3 336.441 168.494ZM419.776 123.938C414.902 126.558 410.029 129.178 405.156 131.799C404.799 130.96 404.403 130.155 403.95 129.407C407.86 127.322 411.746 125.187 415.598 122.981C416.515 122.455 415.7 120.959 414.783 121.485C410.886 123.718 406.953 125.878 402.996 127.986C399.016 122.639 392.477 120.204 385.871 121.887C385.744 121.901 385.61 121.929 385.472 121.979C375.909 125.345 373.153 135.504 375.115 144.235C372.969 145.323 370.824 146.412 368.679 147.499C364.68 142.349 358.261 140.026 351.774 141.679C351.644 141.693 351.511 141.72 351.372 141.77C342.414 144.925 339.429 154.04 340.7 162.358C340.413 162.568 340.137 162.81 339.876 163.051C337.789 164.983 335.716 166.936 333.636 168.879C333.099 169.381 333.536 170.365 334.207 170.357C337.109 170.326 339.918 169.824 342.652 168.838C345.984 175.936 352.824 180.598 361.655 176.801C370.024 173.201 374.536 163.332 371.933 154.034C371.858 153.762 371.758 153.508 371.672 153.244C373.527 152.128 375.441 151.171 377.426 150.366C380.958 156.703 387.482 160.565 395.753 157.008C404.124 153.41 408.635 143.541 406.032 134.243C405.952 133.957 405.849 133.687 405.758 133.409C410.702 130.75 415.647 128.093 420.59 125.433C421.52 124.933 420.702 123.439 419.776 123.938Z" fill="#204742"/>
<path fill-rule="evenodd" clip-rule="evenodd" d="M357.224 147.088C348.019 150.612 347.286 164.407 356.36 168.74C357.286 169.183 358.093 167.676 357.159 167.229C349.436 163.541 349.534 151.88 357.646 148.774C358.602 148.409 358.191 146.718 357.224 147.088Z" fill="#204742"/>
<path fill-rule="evenodd" clip-rule="evenodd" d="M361.1 165.264C360.66 165.963 360.147 166.45 359.524 166.717C358.632 167.101 359.011 169.158 359.908 168.773C360.759 168.407 361.521 167.73 362.123 166.771C362.754 165.765 361.734 164.254 361.1 165.264Z" fill="#204742"/>
<path fill-rule="evenodd" clip-rule="evenodd" d="M63.8901 198.74C53.1234 209.55 34.4859 202.141 28.8572 189.228C22.9267 175.622 29.5365 159.915 42.6163 154.744C52.3641 153.068 62.4302 154.326 67.5609 164.585C72.5885 174.638 72.0169 190.581 63.8901 198.74ZM42.4994 152.32C42.3494 152.304 42.1837 152.324 42.0042 152.396C41.8045 152.431 41.6471 152.507 41.521 152.608C31.5054 156.792 24.3212 166.751 24.2991 178.37C24.277 190.619 31.9482 201.519 43.0149 205.006C53.9822 208.463 65.755 204.142 70.4263 192.744C74.3604 183.14 74.0557 170.094 68.3709 161.295C62.2241 151.786 52.376 150.709 42.4994 152.32Z" fill="#204742"/>
<path fill-rule="evenodd" clip-rule="evenodd" d="M78.9299 165.378C78.7424 164.877 78.5421 164.38 78.3354 163.886C81.8075 162.387 85.4168 161.309 89.1112 160.673C89.478 162.287 89.8055 163.909 90.0918 165.541C86.8437 167.015 83.5079 168.159 80.0732 169.02C79.7458 167.794 79.3772 166.576 78.9299 165.378ZM56.7845 209.854C41.5157 214.845 20.9353 204.504 20.317 186.026C19.7919 170.306 29.1181 155.736 42.2465 149.275C50.9909 147.81 60.6069 147.541 67.5878 154.134C72.9122 159.16 76.3843 166.255 77.6109 173.706C80.2269 189.601 71.2164 205.136 56.7845 209.854ZM93.6874 166.161C93.2557 163.457 92.7197 160.792 92.0721 158.138C91.9038 157.445 91.1437 156.687 90.4183 156.791C85.6812 157.469 81.2084 158.734 76.7987 160.631C74.1671 155.641 70.4865 151.222 65.9176 148.252C58.7511 143.591 49.2347 144.405 41.2742 145.744C40.933 145.802 40.6769 145.942 40.4812 146.128C28.4732 152.046 19.5797 164.28 17.4001 178.293C16.3308 185.168 16.6637 192.834 20.124 198.927C23.6876 205.203 30.0227 209.602 36.2773 212.246C48.9804 217.616 63.2788 214.072 72.6378 203.448C80.0074 195.085 82.7606 183.579 80.8709 172.585C85.0153 171.55 89.007 170.098 92.899 168.234C93.6325 167.882 93.8063 166.905 93.6874 166.161Z" fill="#204742"/>
<path fill-rule="evenodd" clip-rule="evenodd" d="M43.4284 174.846C39.4242 173.993 40.0846 167.262 43.9573 166.813C44.0905 166.796 44.1996 166.742 44.2946 166.671C44.4253 166.738 44.5727 166.774 44.7476 166.725C49.0334 165.553 48.5495 175.937 43.4284 174.846ZM44.3604 165.091C44.3137 165.104 44.2854 165.134 44.2463 165.152C44.1622 165.12 44.0672 165.104 43.9573 165.117C41.3488 165.42 39.0919 167.786 39.1777 170.991C39.2584 174.088 41.5004 176.648 44.1646 176.6C50.6416 176.483 50.7623 163.339 44.3604 165.091Z" fill="#204742"/>
<path fill-rule="evenodd" clip-rule="evenodd" d="M55.3435 183.11C52.1345 184.515 53.2118 177.888 54.2809 178.278C54.6416 178.409 54.9238 178.244 55.0944 177.968C55.7982 178.476 56.3784 179.206 56.5417 180.226C56.7216 181.351 56.2853 182.697 55.3435 183.11ZM55.2697 175.908C54.826 175.683 54.4174 175.935 54.1988 176.311C52.5994 176.207 51.8033 178.578 51.6161 180.245C51.3532 182.606 52.2719 184.864 54.4054 185.136C56.2733 185.376 57.8257 183.706 58.1291 181.546C58.4769 179.066 57.1283 176.851 55.2697 175.908Z" fill="#204742"/>
<path fill-rule="evenodd" clip-rule="evenodd" d="M45.2687 192.902C44.1432 193.698 42.786 193.433 42.0888 192.134C41.7866 191.572 41.6331 190.886 41.6712 190.229C41.6986 189.751 41.9274 188.506 42.5327 188.52C42.9473 188.531 43.2054 188.266 43.3081 187.929C44.3094 187.647 45.4183 188.107 46.0754 189.024C47.019 190.34 46.4607 192.059 45.2687 192.902ZM41.9294 186.475C41.7886 186.557 41.6966 186.666 41.6262 186.783C39.9786 187.564 39.698 190.621 40.2778 192.319C41.1334 194.814 43.5408 195.992 45.7126 194.814C47.8325 193.665 49.0157 190.739 47.7387 188.341C46.5584 186.122 43.9496 185.293 41.9294 186.475Z" fill="#204742"/>
<path fill-rule="evenodd" clip-rule="evenodd" d="M-1.00909 140.773C-0.33614 140.904 0.588596 140.707 0.92646 139.981C13.6755 131.765 25.8276 122.547 39.1357 115.31C39.9337 114.876 40.1206 114.109 39.9364 113.417C39.9077 113.223 39.8568 113.025 39.7587 112.823C31.6027 96.1306 21.1391 80.9318 10.3173 66.0501C6.29805 60.5214 2.43991 52.9147 -4.69043 51.661C-9.37148 50.8368 -16.2334 51.5001 -20.3998 54.5912C-28.3947 41.1154 -36.5256 27.7289 -44.8019 14.4403C-46.0173 12.4875 -49.0239 14.3074 -47.7992 16.2758C-39.1619 30.1442 -30.6783 44.1154 -22.3473 58.1894C-21.741 59.2114 -20.6552 59.2202 -19.9018 58.7189C-19.6731 58.6364 -19.4473 58.4958 -19.2371 58.2777C-16.7517 55.6907 -12.054 55.2913 -8.74944 55.1177C-4.49789 54.8957 -1.56541 56.1717 1.19212 59.5595C5.87409 65.3132 10.0886 71.6264 14.367 77.7156C22.2851 88.9816 29.7181 100.602 35.9219 112.999C23.3264 120.028 11.7076 128.733 -0.423153 136.578C-0.668453 136.533 -0.905418 136.55 -1.12202 136.625C-2.72248 135.151 -4.77004 131.623 -5.59943 130.563C-7.98484 127.504 -10.3045 124.389 -12.5493 121.216C-16.5481 115.562 -20.3257 109.737 -23.8728 103.762C-27.4866 97.6752 -31.9029 91.0595 -33.7218 84.0802C-36.0684 75.0734 -31.3633 69.5534 -25.1845 64.1516C-24.9133 63.9131 -24.7568 63.6494 -24.6744 63.3798C-24.2079 62.8727 -24.0283 62.1232 -24.5162 61.3465C-35.1251 44.4567 -45.6804 27.5165 -56.6929 10.9099C-57.9583 9.00169 -60.9686 10.8178 -59.6902 12.7454C-48.9165 28.9913 -38.5825 45.5553 -28.2049 62.0805C-33.3969 66.6862 -38.1937 71.9406 -37.9484 79.5909C-37.691 87.6562 -32.8748 95.1532 -29.0547 101.843C-24.6004 109.642 -19.7546 117.196 -14.5422 124.46C-12.0985 127.864 -9.5816 131.212 -6.98698 134.491C-5.48464 136.389 -3.51763 140.283 -1.00909 140.773Z" fill="#204742"/>
<path fill-rule="evenodd" clip-rule="evenodd" d="M9.34189 109.331C10.7197 111.306 13.2671 113.839 13.9655 116.105C14.3028 116.616 14.6402 117.126 14.9767 117.636C14.1577 118.505 13.3378 119.376 12.5188 120.246C11.5132 120.053 11.1099 118.558 10.6519 117.787C6.06789 110.076 0.404831 103.131 -4.87654 95.9249C-6.36558 93.8941 -19.1091 74.8477 -17.6889 71.3419C-12.0673 79.7745 -6.09793 87.948 -0.131413 96.1272C3.0606 100.502 6.24224 104.886 9.34189 109.331ZM-16.835 68.6328C-17.0725 68.4787 -17.3713 68.4064 -17.72 68.4874C-25.6166 70.3053 -13.2604 87.9759 -11.3077 90.9008C-4.214 101.525 4.33478 111.059 10.5002 122.329C10.7631 122.807 11.3276 123.002 11.8318 122.882C14.2944 122.293 18.0754 121.133 17.6551 117.901C17.3827 115.81 15.0936 113.525 13.9589 111.858C11.9157 108.859 9.82915 105.891 7.7181 102.94C-0.349096 91.6609 -8.73295 80.6233 -16.3902 69.0413C-16.5155 68.8496 -16.6701 68.7215 -16.835 68.6328Z" fill="#204742"/>
<path fill-rule="evenodd" clip-rule="evenodd" d="M-14.2375 104.866C-18.9245 98.3486 -27.6005 87.0826 -25.2164 77.9265C-17.7086 95.4125 -4.57156 108.956 3.02092 126.393C-0.0319557 125.934 -12.6017 107.139 -14.2375 104.866ZM-24.8467 75.3517C-25.2588 74.6104 -26.2867 74.3232 -26.6811 75.3166C-30.8978 85.935 -21.8715 98.0976 -16.2669 105.942C-12.2399 111.576 -8.0506 117.074 -3.92922 122.625C-2.21837 124.93 1.15391 131.259 4.55001 128.423C4.96824 128.074 5.07676 127.561 4.9903 127.103C5.27176 126.752 5.40146 126.245 5.17382 125.711C-2.49101 107.74 -16.1354 93.9688 -23.66 75.9085C-23.915 75.298 -24.41 75.1779 -24.8467 75.3517Z" fill="#204742"/>
<path fill-rule="evenodd" clip-rule="evenodd" d="M3.70808 78.7097C6.44347 82.9342 9.17794 87.1587 11.9133 91.3833C14.6497 95.6078 17.3841 99.8323 20.1195 104.058C21.4608 106.13 23.093 108.193 24.2222 110.395C25.4588 112.805 25.4597 112.993 23.9193 114.332C12.7535 99.224 2.01941 83.7828 -8.27005 68.0167C-2.74738 66.1601 1.23297 74.8859 3.70808 78.7097ZM28.2739 112.35C21.094 101.26 13.9133 90.1714 6.73344 79.0816C3.15047 73.5482 -2.49725 61.5463 -10.6812 66.5243C-11.514 67.0317 -11.3167 68.0772 -10.7247 68.5404C0.0223141 85.0397 11.252 101.188 22.9596 116.968C23.7072 117.975 25.2245 117.311 25.1837 116.352C26.1517 115.503 27.1225 114.654 28.0914 113.806C28.461 113.484 28.5406 112.762 28.2739 112.35Z" fill="#204742"/>
<path fill-rule="evenodd" clip-rule="evenodd" d="M12.5277 280.028C17.6907 262.318 27.9648 246.837 42.0838 235.347C43.245 234.4 41.6028 232.737 40.4508 233.675C26.0337 245.408 15.5712 261.326 10.303 279.4C9.87655 280.862 12.1031 281.485 12.5277 280.028Z" fill="#204742"/>
<path fill-rule="evenodd" clip-rule="evenodd" d="M15.0052 262.873C16.7611 257.519 19.2211 252.571 22.3806 248.091C23.281 246.816 21.6757 244.999 20.7671 246.288C17.3529 251.129 14.702 256.409 12.8036 262.196C12.2968 263.739 14.503 264.404 15.0052 262.873Z" fill="#204742"/>
<path fill-rule="evenodd" clip-rule="evenodd" d="M195.613 312.075C189.61 309.095 183.767 305.785 178.138 302.06C172.835 298.551 167.964 294.129 162.397 291.116C161.087 290.407 159.929 292.517 161.244 293.227C166.812 296.242 171.682 300.656 176.984 304.171C182.611 307.901 188.457 311.207 194.459 314.187C195.784 314.846 196.946 312.738 195.613 312.075Z" fill="#204742"/>
<path fill-rule="evenodd" clip-rule="evenodd" d="M183.226 312.037C179.056 309.911 175.455 306.913 172.451 303.05C171.507 301.837 169.932 303.604 170.871 304.812C173.986 308.818 177.77 311.982 182.098 314.188C183.396 314.85 184.535 312.704 183.226 312.037Z" fill="#204742"/>
<path fill-rule="evenodd" clip-rule="evenodd" d="M319.257 155.57C323.12 144.883 325.076 133.818 325.131 122.491C325.138 120.984 322.735 120.982 322.728 122.491C322.674 133.62 320.732 144.454 316.94 154.947C316.426 156.371 318.746 156.984 319.257 155.57Z" fill="#204742"/>
<path fill-rule="evenodd" clip-rule="evenodd" d="M324.108 152.475C326.202 146.9 327.635 141.188 328.424 135.272C328.62 133.806 326.418 133.172 326.222 134.652C325.431 140.568 323.999 146.28 321.905 151.855C321.379 153.257 323.587 153.862 324.108 152.475Z" fill="#204742"/>
<path fill-rule="evenodd" clip-rule="evenodd" d="M339.036 90.9385C342.28 81.127 348.459 73.0732 356.804 67.6903C358.094 66.858 356.916 64.6942 355.62 65.5305C346.735 71.2615 340.224 79.8396 336.773 90.2733C336.27 91.7938 338.537 92.449 339.036 90.9385Z" fill="#204742"/>
<path fill-rule="evenodd" clip-rule="evenodd" d="M374.201 171.293C373.666 175.494 370.955 178.77 367.26 179.582C365.848 179.893 366.446 182.33 367.854 182.02C372.225 181.059 375.722 176.959 376.358 171.964C376.561 170.373 374.406 169.686 374.201 171.293Z" fill="#204742"/>
<path fill-rule="evenodd" clip-rule="evenodd" d="M181.918 110.09C170.559 124.554 153.541 133.271 135.323 133.818C133.853 133.861 133.847 136.186 135.323 136.142C154.103 135.578 171.809 126.666 183.536 111.734C184.446 110.575 182.837 108.92 181.918 110.09Z" fill="#204742"/>
<path fill-rule="evenodd" clip-rule="evenodd" d="M180.18 124.779C176.035 128.577 171.427 131.549 166.383 133.671C165.043 134.236 165.624 136.628 166.983 136.055C172.402 133.775 177.321 130.608 181.775 126.528C182.89 125.506 181.287 123.765 180.18 124.779Z" fill="#204742"/>
<path fill-rule="evenodd" clip-rule="evenodd" d="M17.9593 160.926C19.2268 160.189 18.0949 158.123 16.8256 158.864C12.4743 161.4 10.3642 169.087 9.38596 173.93C8.10768 180.255 8.41311 186.672 10.0705 192.876C10.4639 194.353 12.6315 193.725 12.2354 192.241C10.8268 186.966 10.401 181.507 11.276 176.082C12.0108 171.523 13.8146 163.342 17.9593 160.926Z" fill="#204742"/>
<path fill-rule="evenodd" clip-rule="evenodd" d="M50.1107 324.208C41.883 303.617 40.0385 280.648 44.7305 258.775C47.139 261.199 48.6843 275.411 49.0081 277.493C50.042 284.135 50.981 290.815 52.6626 297.304C54.1445 303.018 56.2538 308.384 59.1277 313.412C62.5121 319.334 66.5239 324.986 67.3731 332.147C67.3951 332.327 67.4452 332.482 67.5156 332.621C67.5781 334.589 68.1343 340.339 67.3432 341.304C65.6219 343.401 61.0021 338.026 59.8115 336.883C55.9854 333.209 52.8192 328.934 50.1107 324.208ZM69.7094 332.233C69.7156 331.908 69.6232 331.655 69.4771 331.465C68.5311 324.887 65.394 319.625 62.146 314.099C58.0982 307.215 55.3817 300.01 53.6992 291.994C52.0941 284.341 51.2247 276.53 49.8 268.837C49.2061 265.625 48.6121 255.303 43.9262 255.994C43.8849 255.999 43.8497 256.013 43.811 256.023C43.3939 256.04 42.9979 256.301 42.8659 256.887C37.7066 279.681 39.5625 303.548 48.0691 325.06C48.0964 325.183 48.1387 325.308 48.2117 325.437C48.2663 325.573 48.3358 325.68 48.4123 325.77C52.4224 332.679 57.5244 338.726 63.7274 343.296C70.9493 348.619 69.624 336.924 69.7094 332.233Z" fill="#204742"/>
<path fill-rule="evenodd" clip-rule="evenodd" d="M10.6879 340.312C9.54602 339.282 7.86167 340.945 8.9446 341.995C8.93203 342.073 8.9214 342.153 8.92236 342.239C8.9446 353.332 12.1199 363.873 18.2617 373.091C19.1242 374.383 21.2185 373.168 20.3493 371.863C14.8437 363.599 11.8028 354.317 11.3909 344.45C19.0082 352.731 23.5352 364.672 28.6705 374.393C29.4014 375.776 31.488 374.549 30.758 373.166C24.9759 362.22 20.0369 348.742 10.6879 340.312Z" fill="#204742"/>
<path fill-rule="evenodd" clip-rule="evenodd" d="M155.449 181.696C152.329 180.919 149.273 179.335 146.565 177.362C145.383 176.503 143.457 175.456 142.789 173.934C138.837 164.913 146.584 167.259 149.239 168.31C152.087 169.496 154.941 171.05 156.91 173.853C158.938 176.738 160.735 183.011 155.449 181.696ZM149.814 165.855C145.947 164.324 138.354 163.852 139.25 171.301C140.072 178.139 148.802 182.135 153.593 183.753C157.688 185.134 162.792 184.645 161.19 178.091C159.593 171.562 154.991 168.01 149.814 165.855Z" fill="#204742"/>
<path fill-rule="evenodd" clip-rule="evenodd" d="M273.939 118.846C274.107 118.917 274.299 118.945 274.515 118.904C275.201 118.773 275.211 120.404 275.059 120.759C274.809 121.337 274.108 121.674 273.535 121.503C272.076 121.066 272.537 118.917 273.939 118.846ZM273.722 123.691C275.504 123.77 277.039 122.305 277.184 120.435C277.325 118.614 276.163 116.77 274.428 116.79C274.299 116.725 274.15 116.687 273.973 116.693C272.171 116.739 270.53 118.255 270.586 120.252C270.635 122.053 272.017 123.616 273.722 123.691Z" fill="#204742"/>
</g>
</svg>
