<svg width="301" height="301" viewBox="0 0 301 301" fill="none" xmlns="http://www.w3.org/2000/svg">
<g clip-path="url(#clip0)">
<path d="M296.517 98.9451C264.358 112.632 241.076 102.973 234.898 99.8199C233.871 99.2955 232.643 99.3654 231.68 99.9992C209.328 114.706 194.671 105.966 194.671 105.966L194.618 79.1032C194.618 76.3077 191.303 74.8368 189.231 76.7128L169.225 94.8163C169.225 94.8163 168.471 94.6276 166.82 94.3213C156.002 92.3125 144.898 92.3125 134.08 94.3213C132.43 94.6276 131.676 94.8163 131.676 94.8163L111.671 76.7128C109.598 74.8368 106.283 76.3077 106.283 79.1032V105.994C105.358 106.516 90.941 114.223 69.3236 99.9992C68.3606 99.3654 67.1319 99.2955 66.1055 99.8199C59.9273 102.973 36.6462 112.632 4.48618 98.9451C1.4462 97.6511 -1.32865 101.271 0.691931 103.885C10.5321 116.614 23.9342 138.11 28.0395 164.721C28.3446 166.697 30.3258 167.936 32.227 167.318C43.1448 163.764 76.6058 156.086 106.275 182.693C107.213 206.287 126.627 225.128 150.45 225.128C174.246 225.128 193.636 206.33 194.617 182.777L194.735 182.686C224.402 156.088 257.859 163.764 268.776 167.318C270.677 167.937 272.659 166.697 272.963 164.721C277.069 138.111 290.471 116.614 300.311 103.885C302.332 101.271 299.557 97.6517 296.517 98.9451Z" fill="#B85A36" fill-opacity="0.83"/>
<path d="M283.71 130.714C278.951 140.641 274.913 152.105 272.965 164.72C272.66 166.696 270.679 167.935 268.777 167.317C257.852 163.762 224.357 156.075 194.674 182.744V105.967C194.674 105.967 203.856 111.441 218.777 106.431V140.741C250.02 128.704 253.067 131.284 283.71 130.714Z" fill="#B85A36"/>
<path d="M106.336 149.343V182.743C76.6534 156.075 43.1571 163.761 32.2329 167.316C30.3317 167.935 28.3505 166.696 28.0454 164.72C23.9378 138.107 10.5303 116.609 0.689577 103.879C-1.33689 101.258 1.45266 97.6529 4.50147 98.9498C14.0723 103.021 22.8566 105.025 30.6356 105.746C36.2582 117.069 41.0172 130.507 42.7644 145.44C42.765 145.441 74.3601 131.565 106.336 149.343Z" fill="#B85A36"/>
<path d="M168.293 210.295C174.801 210.326 180.982 208.95 186.55 206.453C178.541 217.756 165.361 225.127 150.454 225.127C126.035 225.127 106.233 205.331 106.233 180.906C106.233 180.184 106.253 179.462 106.285 178.746V79.1032C106.285 76.3077 109.599 74.8368 111.672 76.7128L124.34 88.1767V163.908C124.282 165.193 124.266 166.457 124.326 167.811C125.375 191.307 144.776 210.184 168.293 210.295Z" fill="#B85A36"/>
<path d="M140.157 118.448C137.648 118.448 135.615 120.481 135.615 122.99V126.359C135.615 128.794 134.166 130.613 132.869 130.613C131.572 130.613 130.122 128.794 130.122 126.359V122.99C130.122 120.482 128.089 118.448 125.581 118.448C123.072 118.448 121.039 120.481 121.039 122.99V126.359C121.039 133.713 126.346 139.695 132.868 139.695C139.391 139.695 144.697 133.712 144.697 126.359V122.99C144.698 120.482 142.665 118.448 140.157 118.448Z" fill="#3A4747"/>
<path d="M175.429 118.448C172.921 118.448 170.888 120.481 170.888 122.99V126.359C170.888 128.794 169.438 130.613 168.141 130.613C166.844 130.613 165.395 128.794 165.395 126.359V122.99C165.395 120.482 163.362 118.448 160.853 118.448C158.345 118.448 156.312 120.481 156.312 122.99V126.359C156.312 133.713 161.618 139.695 168.141 139.695C174.663 139.695 179.97 133.712 179.97 126.359V122.99C179.97 120.482 177.937 118.448 175.429 118.448Z" fill="#3A4747"/>
</g>
<g clip-path="url(#clip1)">
<path d="M165.81 31.1066L165.997 31.3253L166.28 31.2727C167.326 31.0785 168.314 30.9546 169.25 30.9546C178.761 30.9546 186.5 38.6933 186.5 48.2046C186.5 54.6998 182.84 60.6161 177.091 63.5537L176.818 63.6929V63.9989V88.4162C176.818 91.7708 174.089 94.5 170.735 94.5H132.272C130.644 94.5 129.119 93.8674 127.968 92.7147L127.614 93.068L127.968 92.7147C126.818 91.5638 126.187 90.0364 126.188 88.409C126.188 88.4089 126.188 88.4088 126.188 88.4088L126.22 64.0233L126.22 63.716L125.946 63.5769C120.175 60.6468 116.5 54.7216 116.5 48.2046C116.5 38.6933 124.239 30.9546 133.75 30.9544C134.686 30.9544 135.674 31.0785 136.72 31.2725L137.003 31.3251L137.191 31.1065C140.654 27.0687 145.779 24.5 151.5 24.5C157.221 24.5 162.346 27.0687 165.81 31.1066Z" fill="#FFD964" stroke="#FFD964"/>
<path d="M170.657 83H132.344C131.544 83 130.842 82.8687 130.361 82.6696C130.174 82.5917 130.061 82.5203 130 82.4723L130.005 81H173V82.4702C172.937 82.5203 172.822 82.5926 172.636 82.6696C172.179 82.8593 171.479 83 170.657 83Z" fill="white" stroke="white" stroke-width="2"/>
<path opacity="0.2" d="M132.143 88.4114L132.15 82.0909H128.924L128.916 88.4114C128.914 89.3097 129.264 90.1527 129.897 90.7877C130.532 91.4228 131.375 91.7726 132.272 91.7726H135.02C134.251 91.7726 133.529 91.4226 132.984 90.7877C132.441 90.1528 132.141 89.3097 132.143 88.4114Z" fill="#FFD964"/>
<path opacity="0.1" d="M170.864 82.0909V88.4163C170.864 90.2663 169.572 91.7729 167.987 91.7729H170.734C172.584 91.7729 174.091 90.2664 174.091 88.4163V82.0909H170.864Z" fill="#FFD964"/>
<path d="M175.09 61.4871C175.005 61.5218 174.925 61.5628 174.849 61.6116C174.646 61.7376 174.479 61.9048 174.354 62.0969C174.228 62.2875 174.143 62.5083 174.108 62.7446C174.094 62.8344 174.089 62.9243 174.091 63.0156V78.8636H128.928L128.949 63.0376C128.95 62.9494 128.945 62.8595 128.933 62.7728C128.898 62.5285 128.808 62.3016 128.677 62.1046C128.554 61.9202 128.394 61.7596 128.198 61.6366C128.118 61.5862 128.033 61.542 127.945 61.5057C122.648 59.1897 119.227 53.9736 119.227 48.2046C119.227 40.1962 125.742 33.6818 133.75 33.6818C134.063 33.6818 134.393 33.7197 134.718 33.7452C133.085 36.5828 132.136 39.8614 132.136 43.3637C132.136 44.2556 132.858 44.9773 133.75 44.9773C134.642 44.9773 135.364 44.2556 135.364 43.3637C135.364 34.4665 142.603 27.2272 151.5 27.2272C160.397 27.2272 167.636 34.4667 167.636 43.3637C167.636 44.2556 168.358 44.9773 169.25 44.9773C170.142 44.9773 170.864 44.2556 170.864 43.3637C170.864 39.8614 169.915 36.5828 168.282 33.7452C168.607 33.7197 168.937 33.6818 169.25 33.6818C177.258 33.6818 183.773 40.1963 183.773 48.2046C183.773 53.9532 180.366 59.1629 175.09 61.4871Z" fill="#FFD964"/>
<path opacity="0.2" d="M151.5 29.2444C158.908 29.2444 165.136 33.9384 167.335 40.3791C165.928 32.9062 159.375 27.2272 151.5 27.2272C143.625 27.2272 137.072 32.9061 135.665 40.3791C137.864 33.9383 144.092 29.2444 151.5 29.2444Z" fill="#FFD964"/>
<path opacity="0.1" d="M169.25 33.6818C168.937 33.6818 168.607 33.7196 168.282 33.7451C168.294 33.7659 168.302 33.7887 168.314 33.8093C174.867 34.4607 180.041 40.6285 180.041 48.2043C180.041 53.9529 177.028 59.1627 172.363 61.4869C172.287 61.5215 172.216 61.5625 172.149 61.6114C171.97 61.7374 171.822 61.9046 171.712 62.0967C171.6 62.2873 171.525 62.508 171.494 62.7443C171.482 62.8342 171.477 62.9241 171.479 63.0154V78.8634H174.091V63.0154C174.089 62.9241 174.094 62.8342 174.108 62.7443C174.143 62.5079 174.228 62.2873 174.354 62.0967C174.479 61.9044 174.646 61.7374 174.849 61.6114C174.925 61.5625 175.005 61.5215 175.09 61.4869C180.366 59.1628 183.773 53.9531 183.773 48.2045C183.773 40.1963 177.258 33.6818 169.25 33.6818Z" fill="#FFD964"/>
<path opacity="0.2" d="M131.542 62.7729C131.511 62.5286 131.432 62.3017 131.316 62.1047C131.208 61.9203 131.065 61.7597 130.893 61.6367C130.822 61.5863 130.746 61.5421 130.668 61.5058C125.984 59.1896 122.959 53.9735 122.959 48.2045C122.959 40.6286 128.133 34.4608 134.686 33.8094C134.698 33.7887 134.706 33.7659 134.718 33.7453C134.393 33.7196 134.063 33.6818 133.75 33.6818C125.742 33.6818 119.227 40.1963 119.227 48.2045C119.227 53.9735 122.648 59.1896 127.945 61.506C128.033 61.5423 128.118 61.5863 128.198 61.6368C128.394 61.7598 128.554 61.9205 128.677 62.1049C128.808 62.3018 128.898 62.5288 128.933 62.7731C128.945 62.8598 128.95 62.9496 128.949 63.0378L128.928 78.8638H131.538L131.556 63.0378C131.557 62.9495 131.553 62.8596 131.542 62.7729Z" fill="#FFD964"/>
<path d="M135.364 57.8864C135.364 56.9945 134.642 56.2727 133.75 56.2727C132.858 56.2727 132.136 56.9945 132.136 57.8864C132.136 62.1237 136.81 67.9417 137.343 68.5925C137.663 68.9802 138.126 69.1819 138.592 69.1819C138.952 69.1819 139.314 69.0621 139.615 68.8163C140.304 68.2505 140.403 67.2342 139.839 66.5439C138.109 64.4355 135.364 60.2218 135.364 57.8864Z" fill="white"/>
<path d="M169.25 56.2727C168.358 56.2727 167.636 56.9945 167.636 57.8864C167.636 60.2138 164.891 64.4324 163.161 66.5456C162.597 67.2342 162.698 68.2506 163.386 68.8163C163.686 69.0621 164.048 69.1819 164.409 69.1819C164.875 69.1819 165.337 68.9802 165.657 68.5925C166.19 67.9417 170.864 62.1239 170.864 57.8864C170.864 56.9945 170.142 56.2727 169.25 56.2727Z" fill="white"/>
<path d="M151.5 56.2727C150.608 56.2727 149.886 56.9945 149.886 57.8864V67.5682C149.886 68.4601 150.608 69.1819 151.5 69.1819C152.392 69.1819 153.114 68.4601 153.114 67.5682V57.8864C153.114 56.9945 152.392 56.2727 151.5 56.2727Z" fill="white"/>
<path d="M165.81 31.1066L165.997 31.3253L166.28 31.2727C167.326 31.0785 168.314 30.9546 169.25 30.9546C178.761 30.9546 186.5 38.6933 186.5 48.2046C186.5 54.6998 182.84 60.6161 177.091 63.5537L176.818 63.6929V63.9989V88.4162C176.818 91.7708 174.089 94.5 170.735 94.5H132.272C130.644 94.5 129.119 93.8674 127.968 92.7147L127.614 93.068L127.968 92.7147C126.818 91.5638 126.187 90.0364 126.188 88.409C126.188 88.4089 126.188 88.4088 126.188 88.4088L126.22 64.0233L126.22 63.716L125.946 63.5769C120.175 60.6468 116.5 54.7216 116.5 48.2046C116.5 38.6933 124.239 30.9546 133.75 30.9544C134.686 30.9544 135.674 31.0785 136.72 31.2725L137.003 31.3251L137.191 31.1065C140.654 27.0687 145.779 24.5 151.5 24.5C157.221 24.5 162.346 27.0687 165.81 31.1066Z" fill="url(#paint0_linear)" stroke="#FFD964"/>
</g>
<defs>
<linearGradient id="paint0_linear" x1="115.36" y1="45.6477" x2="183.194" y2="77.2794" gradientUnits="userSpaceOnUse">
<stop stop-color="white" stop-opacity="0.2"/>
<stop offset="1" stop-color="white" stop-opacity="0"/>
</linearGradient>
<clipPath id="clip0">
<rect width="301" height="301" fill="white"/>
</clipPath>
<clipPath id="clip1">
<rect width="71" height="71" fill="white" transform="translate(116 24)"/>
</clipPath>
</defs>
</svg>